<?xml version="1.0" encoding="UTF-8" standalone="no"?>
<!-- Created with Inkscape (http://www.inkscape.org/) -->

<svg
   xmlns:dc="http://purl.org/dc/elements/1.1/"
   xmlns:cc="http://creativecommons.org/ns#"
   xmlns:rdf="http://www.w3.org/1999/02/22-rdf-syntax-ns#"
   xmlns:svg="http://www.w3.org/2000/svg"
   xmlns="http://www.w3.org/2000/svg"
   xmlns:sodipodi="http://sodipodi.sourceforge.net/DTD/sodipodi-0.dtd"
   xmlns:inkscape="http://www.inkscape.org/namespaces/inkscape"
   id="svg2"
   version="1.1"
   inkscape:version="0.48.5 r10040"
   width="700"
   height="810"
   xml:space="preserve"
   sodipodi:docname="mpl_imu_sensors.svg"><metadata
     id="metadata8"><rdf:RDF><cc:Work
         rdf:about=""><dc:format>image/svg+xml</dc:format><dc:type
           rdf:resource="http://purl.org/dc/dcmitype/StillImage" /><dc:title /></cc:Work></rdf:RDF></metadata><defs
     id="defs6"><clipPath
       clipPathUnits="userSpaceOnUse"
       id="clipPath16"><path
         d="M 0,648 828,648 828,0 0,0 0,648 z"
         id="path18"
         inkscape:connector-curvature="0" /></clipPath><clipPath
       clipPathUnits="userSpaceOnUse"
       id="clipPath40"><path
         d="M 0,648 828,648 828,0 0,0 0,648 z"
         id="path42"
         inkscape:connector-curvature="0" /></clipPath><clipPath
       clipPathUnits="userSpaceOnUse"
       id="clipPath58"><path
         d="M 0,648 828,648 828,0 0,0 0,648 z"
         id="path60"
         inkscape:connector-curvature="0" /></clipPath><clipPath
       clipPathUnits="userSpaceOnUse"
       id="clipPath74"><path
         d="M 0,648 828,648 828,0 0,0 0,648 z"
         id="path76"
         inkscape:connector-curvature="0" /></clipPath><clipPath
       clipPathUnits="userSpaceOnUse"
       id="clipPath120"><path
         d="M 0,648 828,648 828,0 0,0 0,648 z"
         id="path122"
         inkscape:connector-curvature="0" /></clipPath></defs><sodipodi:namedview
     pagecolor="#ffffff"
     bordercolor="#666666"
     borderopacity="1"
     objecttolerance="10"
     gridtolerance="10"
     guidetolerance="10"
     inkscape:pageopacity="0"
     inkscape:pageshadow="2"
     inkscape:window-width="640"
     inkscape:window-height="480"
     id="namedview4"
     showgrid="false"
     inkscape:zoom="0.29135802"
     inkscape:cx="109.06779"
     inkscape:cy="404.99999"
     inkscape:window-x="0"
     inkscape:window-y="24"
     inkscape:window-maximized="0"
     inkscape:current-layer="g10" /><g
     id="g10"
     inkscape:groupmode="layer"
     inkscape:label="mpl_imu_sensors"
     transform="matrix(1.25,0,0,-1.25,0,810)"><g
       id="g3040"
       transform="translate(43.065347,0)"><g
         id="g12"><g
           clip-path="url(#clipPath16)"
           id="g14"><g
             transform="translate(106.0303,203.6816)"
             id="g20"><path
               inkscape:connector-curvature="0"
               id="path22"
               style="fill:none;stroke:#666666;stroke-width:1.84899998;stroke-linecap:butt;stroke-linejoin:miter;stroke-miterlimit:4;stroke-opacity:1;stroke-dasharray:none"
               d="m 0,0 c 0,0 -34.979,48.996 -26.115,142.271 -29.336,81.192 -47.678,98.451 -25.336,108.75 22.342,10.3 30.743,-28.869 50.672,-81.075 6.237,0.366 6.3,0.271 11.498,4.288 -19.142,102.525 -32.095,133.668 -7.6,137.594 24.494,3.926 22.283,-25.174 41.317,-135.645 5.081,-1.469 5.232,-1.54 11.498,0.389 2.245,135.967 -10.737,160.404 17.735,160.592 28.473,0.189 15.213,-29.786 17.541,-159.812 4.623,-1.262 6.137,-1.445 11.043,0.146 22.034,109.286 15.505,142.71 43.138,137.059 27.632,-5.652 5.765,-38.877 -19.49,-187.486 6.116,-1.475 13.642,-0.391 13.642,-0.391 0,0 22.294,87.341 65.095,67.433 C 159.309,47.442 115.767,0 115.767,0" /></g><g
             transform="translate(121.9263,490.8604)"
             id="g24"><path
               inkscape:connector-curvature="0"
               id="path26"
               style="fill:none;stroke:#808080;stroke-width:0.92500001;stroke-linecap:butt;stroke-linejoin:miter;stroke-miterlimit:4;stroke-opacity:1;stroke-dasharray:none"
               d="m 0,0 c 0,-1.838 -1.49,-3.328 -3.329,-3.328 l -14.398,0 c -1.838,0 -3.328,1.49 -3.328,3.328 l 0,11.551 c 0,1.839 1.49,3.329 3.328,3.329 l 14.398,0 C -1.49,14.88 0,13.39 0,11.551 L 0,0 z" /></g><g
             transform="translate(301.0176,378.1182)"
             id="g28"><path
               inkscape:connector-curvature="0"
               id="path30"
               style="fill:none;stroke:#808080;stroke-width:0.92500001;stroke-linecap:butt;stroke-linejoin:miter;stroke-miterlimit:4;stroke-opacity:1;stroke-dasharray:none"
               d="m 0,0 c 0,-1.838 -1.49,-3.329 -3.328,-3.329 l -9.044,0 c -1.838,0 -3.328,1.491 -3.328,3.329 l 0,13.985 c 0,1.838 1.49,3.329 3.328,3.329 l 9.044,0 C -1.49,17.314 0,15.823 0,13.985 L 0,0 z" /></g></g></g><text
         id="text32"
         transform="matrix(1,0,0,-1,290.083,381.7715)"><tspan
           id="tspan34"
           y="0"
           x="0"
           style="font-size:11.09500027px;font-variant:normal;font-weight:bold;font-stretch:normal;writing-mode:lr-tb;fill:#808080;fill-opacity:1;fill-rule:nonzero;stroke:none;font-family:Trade Gothic LT Std Bold;-inkscape-font-specification:TradeGothicLTStd-Bold">0</tspan></text>
<g
         id="g36"><g
           clip-path="url(#clipPath40)"
           id="g38"><g
             transform="translate(71.9595,434.4546)"
             id="g44"><path
               inkscape:connector-curvature="0"
               id="path46"
               style="fill:none;stroke:#808080;stroke-width:0.92500001;stroke-linecap:butt;stroke-linejoin:miter;stroke-miterlimit:4;stroke-opacity:1;stroke-dasharray:none"
               d="m 0,0 c 0,-1.838 -1.49,-3.328 -3.328,-3.328 l -14.398,0 c -1.838,0 -3.329,1.49 -3.329,3.328 l 0,11.551 c 0,1.838 1.491,3.329 3.329,3.329 l 14.398,0 C -1.49,14.88 0,13.389 0,11.551 L 0,0 z" /></g></g></g><text
         id="text48"
         transform="matrix(1,0,0,-1,58.3472,436.8906)"><tspan
           id="tspan50"
           y="0"
           x="0"
           style="font-size:11.09500027px;font-variant:normal;font-weight:bold;font-stretch:normal;writing-mode:lr-tb;fill:#808080;fill-opacity:1;fill-rule:nonzero;stroke:none;font-family:Trade Gothic LT Std Bold;-inkscape-font-specification:TradeGothicLTStd-Bold">4</tspan><tspan
           id="tspan52"
           y="-56.406979"
           x="49.971882"
           style="font-size:11.09500027px;font-variant:normal;font-weight:bold;font-stretch:normal;writing-mode:lr-tb;fill:#808080;fill-opacity:1;fill-rule:nonzero;stroke:none;font-family:Trade Gothic LT Std Bold;-inkscape-font-specification:TradeGothicLTStd-Bold">3</tspan></text>
<g
         id="g54"><g
           clip-path="url(#clipPath58)"
           id="g56"><g
             transform="translate(190.3008,512.4316)"
             id="g62"><path
               inkscape:connector-curvature="0"
               id="path64"
               style="fill:none;stroke:#808080;stroke-width:0.92500001;stroke-linecap:butt;stroke-linejoin:miter;stroke-miterlimit:4;stroke-opacity:1;stroke-dasharray:none"
               d="m 0,0 c 0,-1.838 -1.491,-3.329 -3.329,-3.329 l -14.398,0 c -1.838,0 -3.328,1.491 -3.328,3.329 l 0,11.551 c 0,1.838 1.49,3.328 3.328,3.328 l 14.398,0 C -1.491,14.879 0,13.389 0,11.551 L 0,0 z" /></g></g></g><text
         id="text66"
         transform="matrix(1,0,0,-1,176.6885,514.8677)"><tspan
           id="tspan68"
           y="0"
           x="0"
           style="font-size:11.09500027px;font-variant:normal;font-weight:bold;font-stretch:normal;writing-mode:lr-tb;fill:#808080;fill-opacity:1;fill-rule:nonzero;stroke:none;font-family:Trade Gothic LT Std Bold;-inkscape-font-specification:TradeGothicLTStd-Bold">2</tspan></text>
<g
         id="g70"><g
           clip-path="url(#clipPath74)"
           id="g72"><g
             transform="translate(259.0146,493.6729)"
             id="g78"><path
               inkscape:connector-curvature="0"
               id="path80"
               style="fill:none;stroke:#808080;stroke-width:0.92500001;stroke-linecap:butt;stroke-linejoin:miter;stroke-miterlimit:4;stroke-opacity:1;stroke-dasharray:none"
               d="m 0,0 c 0,-1.838 -1.49,-3.328 -3.329,-3.328 l -14.398,0 c -1.837,0 -3.328,1.49 -3.328,3.328 l 0,11.551 c 0,1.838 1.491,3.329 3.328,3.329 l 14.398,0 C -1.49,14.88 0,13.389 0,11.551 L 0,0 z" /></g></g></g><text
         id="text82"
         transform="matrix(1,0,0,-1,245.4023,496.1089)"><tspan
           id="tspan84"
           y="0"
           x="0"
           style="font-size:11.09500027px;font-variant:normal;font-weight:bold;font-stretch:normal;writing-mode:lr-tb;fill:#808080;fill-opacity:1;fill-rule:nonzero;stroke:none;font-family:Trade Gothic LT Std Bold;-inkscape-font-specification:TradeGothicLTStd-Bold">1</tspan></text>
<text
         id="text86"
         transform="matrix(1,0,0,-0.99650511,44.646,587.7822)"><tspan
           id="tspan88"
           sodipodi:role="line"
           y="0"
           x="0 4.6783504 16.38125 26.5247 30.809677 39.393677 46.418228 54.229527 60.467327 67.491875 72.170227"
           style="font-size:14.04909992px;font-variant:normal;font-weight:normal;font-stretch:normal;writing-mode:lr-tb;fill:#666666;fill-opacity:1;fill-rule:nonzero;stroke:none;font-family:Trade Gothic LT Std;-inkscape-font-specification:TradeGothicLTStd">IMU Sensors</tspan><tspan
           id="tspan90"
           sodipodi:role="line"
           y="16.858919"
           x="0 7.8112998 14.0491 22.633101 29.65765 37.468948 43.706749 50.7313 55.409649 59.694626 63.979603 68.657951 80.360855 90.504303 97.528854 104.55341 112.3647 119.38925 125.62705 132.6516 136.55725 153.69716 158.3755 170.0784 180.22185 187.2464 191.15205 195.05771 202.869 209.89355 216.91811"
           style="font-size:14.04909992px;font-variant:normal;font-weight:normal;font-stretch:normal;writing-mode:lr-tb;fill:#666666;fill-opacity:1;fill-rule:nonzero;stroke:none;font-family:Trade Gothic LT Std;-inkscape-font-specification:TradeGothicLTStd">hxSensor: IMU_angvel IMU_linacc</tspan></text>
<text
         id="text92"
         transform="matrix(1,0,0,-0.99650318,44.646,557.7822)"><tspan
           id="tspan94"
           sodipodi:role="line"
           y="0"
           x="0 3.6758537 12.871008 20.840878 24.207649 29.108788 34.62809 40.765549 45.666687 51.185989 54.861843 59.762981 63.129753 68.649055 72.324905 77.844208 81.210983 86.730278 92.867744 96.234512 99.91037 106.04783 111.56713 114.93391 121.07137 124.1401 129.04123 132.71709 138.23639 141.30511 144.67189 148.34775 152.02361 155.09233 161.2298 164.90564 168.27242 171.34116 176.86044 179.92918 186.06664 189.74249 193.10927 198.62857 202.30443 205.67119 211.19049 216.70979 222.2291 228.36656 231.73334 237.87079 244.00826 249.52756 255.04686"
           style="font-size:11.03859997px;font-variant:normal;font-weight:normal;font-stretch:normal;writing-mode:lr-tb;fill:#666666;fill-opacity:1;fill-rule:nonzero;stroke:none;font-family:Trade Gothic LT Std;-inkscape-font-specification:TradeGothicLTStd">IMU sensors are on the distal (tip) joint of each fnger</tspan><tspan
           id="tspan96"
           y="29.782143"
           x="326.91919"
           style="font-size:11.03859997px;font-variant:normal;font-weight:normal;font-stretch:normal;writing-mode:lr-tb;fill:#666666;fill-opacity:1;fill-rule:nonzero;stroke:none;font-family:Trade Gothic LT Std;-inkscape-font-specification:TradeGothicLTStd">0</tspan><tspan
           id="tspan98"
           y="44.838795"
           x="326.91919"
           style="font-size:11.03859997px;font-variant:normal;font-weight:normal;font-stretch:normal;writing-mode:lr-tb;fill:#666666;fill-opacity:1;fill-rule:nonzero;stroke:none;font-family:Trade Gothic LT Std;-inkscape-font-specification:TradeGothicLTStd">1</tspan><tspan
           id="tspan100"
           y="59.895443"
           x="326.91919"
           style="font-size:11.03859997px;font-variant:normal;font-weight:normal;font-stretch:normal;writing-mode:lr-tb;fill:#666666;fill-opacity:1;fill-rule:nonzero;stroke:none;font-family:Trade Gothic LT Std;-inkscape-font-specification:TradeGothicLTStd">2</tspan><tspan
           id="tspan102"
           y="74.952095"
           x="326.91919"
           style="font-size:11.03859997px;font-variant:normal;font-weight:normal;font-stretch:normal;writing-mode:lr-tb;fill:#666666;fill-opacity:1;fill-rule:nonzero;stroke:none;font-family:Trade Gothic LT Std;-inkscape-font-specification:TradeGothicLTStd">3</tspan><tspan
           id="tspan104"
           y="90.008743"
           x="326.91919"
           style="font-size:11.03859997px;font-variant:normal;font-weight:normal;font-stretch:normal;writing-mode:lr-tb;fill:#666666;fill-opacity:1;fill-rule:nonzero;stroke:none;font-family:Trade Gothic LT Std;-inkscape-font-specification:TradeGothicLTStd">4</tspan><tspan
           id="tspan106"
           sodipodi:role="line"
           y="28.490627"
           x="351.49109 357.62857 363.76602 369.90347 379.09863"
           style="font-size:11.03859997px;font-variant:normal;font-weight:normal;font-stretch:normal;writing-mode:lr-tb;fill:#666666;fill-opacity:1;fill-rule:nonzero;stroke:none;font-family:Trade Gothic LT Std;-inkscape-font-specification:TradeGothicLTStd">Thumb</tspan><tspan
           id="tspan108"
           sodipodi:role="line"
           y="43.547276"
           x="351.49109 355.16696 361.30441 367.44186 372.96118"
           style="font-size:11.03859997px;font-variant:normal;font-weight:normal;font-stretch:normal;writing-mode:lr-tb;fill:#666666;fill-opacity:1;fill-rule:nonzero;stroke:none;font-family:Trade Gothic LT Std;-inkscape-font-specification:TradeGothicLTStd">Index</tspan><tspan
           id="tspan110"
           sodipodi:role="line"
           y="58.603928"
           x="351.49109 360.68625 363.75497 369.89246 376.02991 379.09863"
           style="font-size:11.03859997px;font-variant:normal;font-weight:normal;font-stretch:normal;writing-mode:lr-tb;fill:#666666;fill-opacity:1;fill-rule:nonzero;stroke:none;font-family:Trade Gothic LT Std;-inkscape-font-specification:TradeGothicLTStd">Middle</tspan><tspan
           id="tspan112"
           sodipodi:role="line"
           y="73.660576"
           x="351.49109 358.85385 361.92258 368.06003"
           style="font-size:11.03859997px;font-variant:normal;font-weight:normal;font-stretch:normal;writing-mode:lr-tb;fill:#666666;fill-opacity:1;fill-rule:nonzero;stroke:none;font-family:Trade Gothic LT Std;-inkscape-font-specification:TradeGothicLTStd">Ring</tspan><tspan
           id="tspan114"
           sodipodi:role="line"
           y="88.717232"
           x="351.49109 357.62857 360.6973 364.37314 368.04901 371.11774"
           style="font-size:11.03859997px;font-variant:normal;font-weight:normal;font-stretch:normal;writing-mode:lr-tb;fill:#666666;fill-opacity:1;fill-rule:nonzero;stroke:none;font-family:Trade Gothic LT Std;-inkscape-font-specification:TradeGothicLTStd">Little</tspan></text>
<g
         id="g116"><g
           clip-path="url(#clipPath120)"
           id="g118"><g
             transform="translate(387.4653,551.811)"
             id="g124"><path
               inkscape:connector-curvature="0"
               id="path126"
               style="fill:none;stroke:#666666;stroke-width:0.5;stroke-linecap:butt;stroke-linejoin:miter;stroke-miterlimit:4;stroke-opacity:1;stroke-dasharray:none"
               d="M 0,0 0,-95.545" /></g></g></g></g></g></svg>