<?xml version="1.0" encoding="UTF-8" standalone="no"?>
<!-- Created with Inkscape (http://www.inkscape.org/) -->

<svg
   xmlns:dc="http://purl.org/dc/elements/1.1/"
   xmlns:cc="http://creativecommons.org/ns#"
   xmlns:rdf="http://www.w3.org/1999/02/22-rdf-syntax-ns#"
   xmlns:svg="http://www.w3.org/2000/svg"
   xmlns="http://www.w3.org/2000/svg"
   xmlns:sodipodi="http://sodipodi.sourceforge.net/DTD/sodipodi-0.dtd"
   xmlns:inkscape="http://www.inkscape.org/namespaces/inkscape"
   id="svg2"
   version="1.1"
   inkscape:version="0.48.5 r10040"
   width="700"
   height="810"
   xml:space="preserve"
   sodipodi:docname="mpl_motors.svg"><metadata
     id="metadata8"><rdf:RDF><cc:Work
         rdf:about=""><dc:format>image/svg+xml</dc:format><dc:type
           rdf:resource="http://purl.org/dc/dcmitype/StillImage" /><dc:title /></cc:Work></rdf:RDF></metadata><defs
     id="defs6"><clipPath
       clipPathUnits="userSpaceOnUse"
       id="clipPath16"><path
         d="M 0,648 828,648 828,0 0,0 0,648 z"
         id="path18"
         inkscape:connector-curvature="0" /></clipPath><clipPath
       clipPathUnits="userSpaceOnUse"
       id="clipPath208"><path
         d="M 0,648 828,648 828,0 0,0 0,648 z"
         id="path210"
         inkscape:connector-curvature="0" /></clipPath></defs><sodipodi:namedview
     pagecolor="#ffffff"
     bordercolor="#666666"
     borderopacity="1"
     objecttolerance="10"
     gridtolerance="10"
     guidetolerance="10"
     inkscape:pageopacity="0"
     inkscape:pageshadow="2"
     inkscape:window-width="640"
     inkscape:window-height="480"
     id="namedview4"
     showgrid="false"
     inkscape:zoom="0.29135802"
     inkscape:cx="109.06779"
     inkscape:cy="404.99999"
     inkscape:window-x="0"
     inkscape:window-y="24"
     inkscape:window-maximized="0"
     inkscape:current-layer="g10" /><g
     id="g10"
     inkscape:groupmode="layer"
     inkscape:label="mpl_motors"
     transform="matrix(1.25,0,0,-1.25,0,810)"><g
       id="g3144"
       transform="translate(14.443578,0)"><g
         id="g12"><g
           clip-path="url(#clipPath16)"
           id="g14"><g
             transform="translate(121.9692,491.3223)"
             id="g20"><path
               inkscape:connector-curvature="0"
               id="path22"
               style="fill:none;stroke:#e6e6e6;stroke-width:0.5;stroke-linecap:butt;stroke-linejoin:miter;stroke-miterlimit:4;stroke-opacity:1;stroke-dasharray:none"
               d="m 0,0 c 0,-1.838 -1.49,-3.328 -3.329,-3.328 l -14.398,0 c -1.838,0 -3.328,1.49 -3.328,3.328 l 0,11.551 c 0,1.839 1.49,3.329 3.328,3.329 l 14.398,0 C -1.49,14.88 0,13.39 0,11.551 L 0,0 z" /></g><g
             transform="translate(190.5933,428.4165)"
             id="g24"><path
               inkscape:connector-curvature="0"
               id="path26"
               style="fill:none;stroke:#e6e6e6;stroke-width:0.5;stroke-linecap:butt;stroke-linejoin:miter;stroke-miterlimit:4;stroke-opacity:1;stroke-dasharray:none"
               d="m 0,0 c 0,-1.838 -1.491,-3.328 -3.329,-3.328 l -14.398,0 c -1.838,0 -3.328,1.49 -3.328,3.328 l 0,11.551 c 0,1.838 1.49,3.329 3.328,3.329 l 14.398,0 C -1.491,14.88 0,13.389 0,11.551 L 0,0 z" /></g><g
             transform="translate(267.2612,294.0312)"
             id="g28"><path
               inkscape:connector-curvature="0"
               id="path30"
               style="fill:none;stroke:#e6e6e6;stroke-width:0.5;stroke-linecap:butt;stroke-linejoin:miter;stroke-miterlimit:4;stroke-opacity:1;stroke-dasharray:none"
               d="m 0,0 c 0,-2.148 -1.49,-3.892 -3.329,-3.892 l -10.277,0 c -1.839,0 -3.329,1.744 -3.329,3.892 l 0,39.846 c 0,2.15 1.49,3.892 3.329,3.892 l 10.277,0 C -1.49,43.738 0,41.996 0,39.846 L 0,0 z" /></g><g
             transform="translate(286.7988,336.019)"
             id="g32"><path
               inkscape:connector-curvature="0"
               id="path34"
               style="fill:none;stroke:#e6e6e6;stroke-width:0.5;stroke-linecap:butt;stroke-linejoin:miter;stroke-miterlimit:4;stroke-opacity:1;stroke-dasharray:none"
               d="m 0,0 c 0,-1.839 -1.49,-3.331 -3.329,-3.331 l -10.277,0 c -1.839,0 -3.329,1.492 -3.329,3.331 l 0,34.105 c 0,1.841 1.49,3.333 3.329,3.333 l 10.277,0 C -1.49,37.438 0,35.946 0,34.105 L 0,0 z" /></g><g
             transform="translate(301.3101,378.1182)"
             id="g36"><path
               inkscape:connector-curvature="0"
               id="path38"
               style="fill:none;stroke:#e6e6e6;stroke-width:0.5;stroke-linecap:butt;stroke-linejoin:miter;stroke-miterlimit:4;stroke-opacity:1;stroke-dasharray:none"
               d="m 0,0 c 0,-1.838 -1.49,-3.329 -3.328,-3.329 l -9.044,0 c -1.838,0 -3.328,1.491 -3.328,3.329 l 0,13.985 c 0,1.838 1.49,3.329 3.328,3.329 l 9.044,0 C -1.49,17.314 0,15.823 0,13.985 L 0,0 z" /></g><g
             transform="translate(237.5698,384.4961)"
             id="g40"><path
               inkscape:connector-curvature="0"
               id="path42"
               style="fill:none;stroke:#e6e6e6;stroke-width:0.5;stroke-linecap:butt;stroke-linejoin:miter;stroke-miterlimit:4;stroke-opacity:1;stroke-dasharray:none"
               d="m 0,0 c 0,-1.838 -1.49,-3.329 -3.328,-3.329 l -14.398,0 c -1.838,0 -3.329,1.491 -3.329,3.329 l 0,11.551 c 0,1.838 1.491,3.328 3.329,3.328 l 14.398,0 C -1.49,14.879 0,13.389 0,11.551 L 0,0 z" /></g><g
             transform="translate(190.5933,386.4097)"
             id="g44"><path
               inkscape:connector-curvature="0"
               id="path46"
               style="fill:none;stroke:#e6e6e6;stroke-width:0.5;stroke-linecap:butt;stroke-linejoin:miter;stroke-miterlimit:4;stroke-opacity:1;stroke-dasharray:none"
               d="m 0,0 c 0,-1.838 -1.491,-3.329 -3.329,-3.329 l -14.398,0 c -1.838,0 -3.328,1.491 -3.328,3.329 l 0,11.551 c 0,1.838 1.49,3.328 3.328,3.328 l 14.398,0 C -1.491,14.879 0,13.389 0,11.551 L 0,0 z" /></g><g
             transform="translate(143.4814,386.6733)"
             id="g48"><path
               inkscape:connector-curvature="0"
               id="path50"
               style="fill:none;stroke:#e6e6e6;stroke-width:0.5;stroke-linecap:butt;stroke-linejoin:miter;stroke-miterlimit:4;stroke-opacity:1;stroke-dasharray:none"
               d="m 0,0 c 0,-1.838 -1.49,-3.329 -3.329,-3.329 l -14.398,0 c -1.838,0 -3.328,1.491 -3.328,3.329 l 0,11.551 c 0,1.838 1.49,3.328 3.328,3.328 l 14.398,0 C -1.49,14.879 0,13.389 0,11.551 L 0,0 z" /></g><g
             transform="translate(97.3262,366.4048)"
             id="g52"><path
               inkscape:connector-curvature="0"
               id="path54"
               style="fill:none;stroke:#e6e6e6;stroke-width:0.5;stroke-linecap:butt;stroke-linejoin:miter;stroke-miterlimit:4;stroke-opacity:1;stroke-dasharray:none"
               d="m 0,0 c 0,-1.838 -1.49,-3.329 -3.329,-3.329 l -14.397,0 c -1.838,0 -3.329,1.491 -3.329,3.329 l 0,11.551 c 0,1.838 1.491,3.328 3.329,3.328 l 14.397,0 C -1.49,14.879 0,13.389 0,11.551 L 0,0 z" /></g><g
             transform="translate(91.7559,389.0874)"
             id="g56"><path
               inkscape:connector-curvature="0"
               id="path58"
               style="fill:none;stroke:#e6e6e6;stroke-width:0.5;stroke-linecap:butt;stroke-linejoin:miter;stroke-miterlimit:4;stroke-opacity:1;stroke-dasharray:none"
               d="m 0,0 c 0,-1.838 -1.49,-3.329 -3.329,-3.329 l -14.398,0 c -1.838,0 -3.328,1.491 -3.328,3.329 l 0,11.551 c 0,1.839 1.49,3.329 3.328,3.329 l 14.398,0 C -1.49,14.88 0,13.39 0,11.551 L 0,0 z" /></g><g
             transform="translate(80.4229,411.771)"
             id="g60"><path
               inkscape:connector-curvature="0"
               id="path62"
               style="fill:none;stroke:#e6e6e6;stroke-width:0.5;stroke-linecap:butt;stroke-linejoin:miter;stroke-miterlimit:4;stroke-opacity:1;stroke-dasharray:none"
               d="m 0,0 c 0,-1.838 -1.49,-3.328 -3.329,-3.328 l -14.398,0 c -1.837,0 -3.328,1.49 -3.328,3.328 l 0,11.551 c 0,1.838 1.491,3.329 3.328,3.329 l 14.398,0 C -1.49,14.88 0,13.389 0,11.551 L 0,0 z" /></g><g
             transform="translate(71.9595,434.4546)"
             id="g64"><path
               inkscape:connector-curvature="0"
               id="path66"
               style="fill:none;stroke:#e6e6e6;stroke-width:0.5;stroke-linecap:butt;stroke-linejoin:miter;stroke-miterlimit:4;stroke-opacity:1;stroke-dasharray:none"
               d="m 0,0 c 0,-1.838 -1.49,-3.328 -3.328,-3.328 l -14.398,0 c -1.838,0 -3.329,1.49 -3.329,3.328 l 0,11.551 c 0,1.838 1.491,3.329 3.329,3.329 l 14.398,0 C -1.49,14.88 0,13.389 0,11.551 L 0,0 z" /></g><g
             transform="translate(137.0732,421.2476)"
             id="g68"><path
               inkscape:connector-curvature="0"
               id="path70"
               style="fill:none;stroke:#e6e6e6;stroke-width:0.5;stroke-linecap:butt;stroke-linejoin:miter;stroke-miterlimit:4;stroke-opacity:1;stroke-dasharray:none"
               d="m 0,0 c 0,-1.838 -1.49,-3.328 -3.329,-3.328 l -14.397,0 c -1.838,0 -3.329,1.49 -3.329,3.328 l 0,11.551 c 0,1.838 1.491,3.329 3.329,3.329 l 14.397,0 C -1.49,14.88 0,13.389 0,11.551 L 0,0 z" /></g><g
             transform="translate(129.0205,455.8232)"
             id="g72"><path
               inkscape:connector-curvature="0"
               id="path74"
               style="fill:none;stroke:#e6e6e6;stroke-width:0.5;stroke-linecap:butt;stroke-linejoin:miter;stroke-miterlimit:4;stroke-opacity:1;stroke-dasharray:none"
               d="m 0,0 c 0,-1.838 -1.49,-3.329 -3.329,-3.329 l -14.398,0 c -1.838,0 -3.328,1.491 -3.328,3.329 l 0,11.551 c 0,1.838 1.49,3.328 3.328,3.328 l 14.398,0 C -1.49,14.879 0,13.389 0,11.551 L 0,0 z" /></g><g
             transform="translate(190.5933,470.4238)"
             id="g76"><path
               inkscape:connector-curvature="0"
               id="path78"
               style="fill:none;stroke:#e6e6e6;stroke-width:0.5;stroke-linecap:butt;stroke-linejoin:miter;stroke-miterlimit:4;stroke-opacity:1;stroke-dasharray:none"
               d="m 0,0 c 0,-1.838 -1.491,-3.328 -3.329,-3.328 l -14.398,0 c -1.838,0 -3.328,1.49 -3.328,3.328 l 0,11.551 c 0,1.838 1.49,3.329 3.328,3.329 l 14.398,0 C -1.491,14.88 0,13.389 0,11.551 L 0,0 z" /></g><g
             transform="translate(190.5933,512.4316)"
             id="g80"><path
               inkscape:connector-curvature="0"
               id="path82"
               style="fill:none;stroke:#e6e6e6;stroke-width:0.5;stroke-linecap:butt;stroke-linejoin:miter;stroke-miterlimit:4;stroke-opacity:1;stroke-dasharray:none"
               d="m 0,0 c 0,-1.838 -1.491,-3.329 -3.329,-3.329 l -14.398,0 c -1.838,0 -3.328,1.491 -3.328,3.329 l 0,11.551 c 0,1.838 1.49,3.328 3.328,3.328 l 14.398,0 C -1.491,14.879 0,13.389 0,11.551 L 0,0 z" /></g><g
             transform="translate(244.5767,420.8887)"
             id="g84"><path
               inkscape:connector-curvature="0"
               id="path86"
               style="fill:none;stroke:#e6e6e6;stroke-width:0.5;stroke-linecap:butt;stroke-linejoin:miter;stroke-miterlimit:4;stroke-opacity:1;stroke-dasharray:none"
               d="m 0,0 c 0,-1.838 -1.49,-3.329 -3.329,-3.329 l -14.397,0 c -1.838,0 -3.329,1.491 -3.329,3.329 l 0,11.551 c 0,1.838 1.491,3.328 3.329,3.328 l 14.397,0 C -1.49,14.879 0,13.389 0,11.551 L 0,0 z" /></g><g
             transform="translate(250.9028,457.2803)"
             id="g88"><path
               inkscape:connector-curvature="0"
               id="path90"
               style="fill:none;stroke:#e6e6e6;stroke-width:0.5;stroke-linecap:butt;stroke-linejoin:miter;stroke-miterlimit:4;stroke-opacity:1;stroke-dasharray:none"
               d="m 0,0 c 0,-1.838 -1.49,-3.328 -3.329,-3.328 l -14.397,0 c -1.838,0 -3.329,1.49 -3.329,3.328 l 0,11.551 c 0,1.839 1.491,3.329 3.329,3.329 l 14.397,0 C -1.49,14.88 0,13.39 0,11.551 L 0,0 z" /></g><g
             transform="translate(259.0146,493.6729)"
             id="g92"><path
               inkscape:connector-curvature="0"
               id="path94"
               style="fill:none;stroke:#e6e6e6;stroke-width:0.5;stroke-linecap:butt;stroke-linejoin:miter;stroke-miterlimit:4;stroke-opacity:1;stroke-dasharray:none"
               d="m 0,0 c 0,-1.838 -1.49,-3.328 -3.329,-3.328 l -14.397,0 c -1.838,0 -3.329,1.49 -3.329,3.328 l 0,11.551 c 0,1.838 1.491,3.329 3.329,3.329 l 14.397,0 C -1.49,14.88 0,13.389 0,11.551 L 0,0 z" /></g><g
             transform="translate(245.4028,248.3408)"
             id="g96"><path
               inkscape:connector-curvature="0"
               id="path98"
               style="fill:none;stroke:#e6e6e6;stroke-width:0.5;stroke-linecap:butt;stroke-linejoin:miter;stroke-miterlimit:10;stroke-opacity:1;stroke-dasharray:none"
               d="m 0,0 c 0,-1.838 -1.49,-3.328 -3.329,-3.328 l -10.029,0 c -1.839,0 -3.329,1.49 -3.329,3.328 l 0,72.894 c 0,1.838 1.49,3.328 3.329,3.328 l 10.029,0 C -1.49,76.222 0,74.732 0,72.894 L 0,0 z" /></g><g
             transform="translate(98.4526,37.1191)"
             id="g100"><path
               inkscape:connector-curvature="0"
               id="path102"
               style="fill:none;stroke:#666666;stroke-width:1.84899998;stroke-linecap:butt;stroke-linejoin:miter;stroke-miterlimit:4;stroke-opacity:1;stroke-dasharray:none"
               d="m 0,0 c 7.781,19.682 7.578,166.562 7.578,166.562 0,0 -34.98,48.997 -26.116,142.272 -29.335,81.191 -47.678,98.451 -25.336,108.75 22.342,10.299 30.743,-28.869 50.672,-81.075 6.238,0.366 6.301,0.271 11.499,4.287 -19.142,102.526 -32.096,133.668 -7.601,137.595 24.494,3.926 22.284,-25.174 41.317,-135.646 5.081,-1.469 5.233,-1.54 11.499,0.39 2.245,135.966 -10.737,160.404 17.735,160.592 28.473,0.188 15.213,-29.787 17.541,-159.812 4.623,-1.262 6.136,-1.446 11.043,0.146 22.033,109.286 15.505,142.71 43.137,137.058 27.633,-5.652 5.765,-38.877 -19.489,-187.486 6.115,-1.474 13.642,-0.391 13.642,-0.391 0,0 22.294,87.342 65.095,67.433 -45.33,-146.67 -88.871,-194.113 -88.871,-194.113 0,0 -4.34,-150.541 6.645,-166.562" /></g></g></g><text
         id="text104"
         transform="matrix(1,0,0,-1,242.6465,202.9668)"><tspan
           id="tspan106"
           y="0"
           x="0"
           style="font-size:11.09500027px;font-variant:normal;font-weight:bold;font-stretch:normal;writing-mode:lr-tb;fill:#808080;fill-opacity:1;fill-rule:nonzero;stroke:none;font-family:Trade Gothic LT Std Bold;-inkscape-font-specification:TradeGothicLTStd-Bold">2</tspan><tspan
           id="tspan108"
           y="35.12677"
           x="0"
           style="font-size:11.09500027px;font-variant:normal;font-weight:bold;font-stretch:normal;writing-mode:lr-tb;fill:#808080;fill-opacity:1;fill-rule:nonzero;stroke:none;font-family:Trade Gothic LT Std Bold;-inkscape-font-specification:TradeGothicLTStd-Bold">1</tspan><tspan
           id="tspan110"
           y="89.691978"
           x="0"
           style="font-size:11.09500027px;font-variant:normal;font-weight:bold;font-stretch:normal;writing-mode:lr-tb;fill:#808080;fill-opacity:1;fill-rule:nonzero;stroke:none;font-family:Trade Gothic LT Std Bold;-inkscape-font-specification:TradeGothicLTStd-Bold">0</tspan><tspan
           id="tspan112"
           y="-167.26822"
           x="-54.05484"
           style="font-size:11.09500027px;font-variant:normal;font-weight:bold;font-stretch:normal;writing-mode:lr-tb;fill:#808080;fill-opacity:1;fill-rule:nonzero;stroke:none;font-family:Trade Gothic LT Std Bold;-inkscape-font-specification:TradeGothicLTStd-Bold">9</tspan><tspan
           id="tspan114"
           y="-162.93008"
           x="0.69898498"
           style="font-size:11.09500027px;font-variant:normal;font-weight:bold;font-stretch:normal;writing-mode:lr-tb;fill:#808080;fill-opacity:1;fill-rule:nonzero;stroke:none;font-family:Trade Gothic LT Std Bold;-inkscape-font-specification:TradeGothicLTStd-Bold">7</tspan><tspan
           id="tspan116"
           y="-132.31897"
           x="62.15419"
           style="font-size:11.09500027px;font-variant:normal;font-weight:bold;font-stretch:normal;writing-mode:lr-tb;fill:#808080;fill-opacity:1;fill-rule:nonzero;stroke:none;font-family:Trade Gothic LT Std Bold;-inkscape-font-specification:TradeGothicLTStd-Bold">5</tspan><tspan
           id="tspan118"
           y="-169.47614"
           x="71.096764"
           style="font-size:11.09500027px;font-variant:normal;font-weight:bold;font-stretch:normal;writing-mode:lr-tb;fill:#808080;fill-opacity:1;fill-rule:nonzero;stroke:none;font-family:Trade Gothic LT Std Bold;-inkscape-font-specification:TradeGothicLTStd-Bold">6</tspan><tspan
           id="tspan120"
           sodipodi:role="line"
           y="-167.25713"
           x="-102.68423 -96.515404"
           style="font-size:11.09500027px;font-variant:normal;font-weight:bold;font-stretch:normal;writing-mode:lr-tb;fill:#808080;fill-opacity:1;fill-rule:nonzero;stroke:none;font-family:Trade Gothic LT Std Bold;-inkscape-font-specification:TradeGothicLTStd-Bold">11</tspan><tspan
           id="tspan122"
           sodipodi:role="line"
           y="-204.41428"
           x="-95.583427 -89.414604"
           style="font-size:11.09500027px;font-variant:normal;font-weight:bold;font-stretch:normal;writing-mode:lr-tb;fill:#808080;fill-opacity:1;fill-rule:nonzero;stroke:none;font-family:Trade Gothic LT Std Bold;-inkscape-font-specification:TradeGothicLTStd-Bold">12</tspan><tspan
           id="tspan124"
           sodipodi:role="line"
           y="-204.82478"
           x="-42.893269 -36.724449"
           style="font-size:11.09500027px;font-variant:normal;font-weight:bold;font-stretch:normal;writing-mode:lr-tb;fill:#808080;fill-opacity:1;fill-rule:nonzero;stroke:none;font-family:Trade Gothic LT Std Bold;-inkscape-font-specification:TradeGothicLTStd-Bold">10</tspan><tspan
           id="tspan126"
           sodipodi:role="line"
           y="-175.17896"
           x="-195.77127 -189.60245"
           style="font-size:11.09500027px;font-variant:normal;font-weight:bold;font-stretch:normal;writing-mode:lr-tb;fill:#808080;fill-opacity:1;fill-rule:nonzero;stroke:none;font-family:Trade Gothic LT Std Bold;-inkscape-font-specification:TradeGothicLTStd-Bold">14</tspan><tspan
           id="tspan128"
           y="-99.777336"
           x="48.673763"
           style="font-size:11.09500027px;font-variant:normal;font-weight:bold;font-stretch:normal;writing-mode:lr-tb;fill:#808080;fill-opacity:1;fill-rule:nonzero;stroke:none;font-family:Trade Gothic LT Std Bold;-inkscape-font-specification:TradeGothicLTStd-Bold">4</tspan><tspan
           id="tspan130"
           sodipodi:role="line"
           y="-157.60448"
           x="-139.10912 -132.94029"
           style="font-size:11.09500027px;font-variant:normal;font-weight:bold;font-stretch:normal;writing-mode:lr-tb;fill:#808080;fill-opacity:1;fill-rule:nonzero;stroke:none;font-family:Trade Gothic LT Std Bold;-inkscape-font-specification:TradeGothicLTStd-Bold">13</tspan><tspan
           id="tspan132"
           y="-78.230843"
           x="39.56477"
           style="font-size:11.09500027px;font-variant:normal;font-weight:bold;font-stretch:normal;writing-mode:lr-tb;fill:#808080;fill-opacity:1;fill-rule:nonzero;stroke:none;font-family:Trade Gothic LT Std Bold;-inkscape-font-specification:TradeGothicLTStd-Bold">3</tspan><tspan
           id="tspan134"
           y="-203.27148"
           x="11.93822"
           style="font-size:11.09500027px;font-variant:normal;font-weight:bold;font-stretch:normal;writing-mode:lr-tb;fill:#808080;fill-opacity:1;fill-rule:nonzero;stroke:none;font-family:Trade Gothic LT Std Bold;-inkscape-font-specification:TradeGothicLTStd-Bold">8</tspan></text>
<text
         id="text136"
         transform="matrix(1,0,0,-0.99650511,44.646,587.7822)"><tspan
           id="tspan138"
           sodipodi:role="line"
           y="0"
           x="0 11.7029 18.727449 23.4058 30.430351 35.1087"
           style="font-size:14.04909992px;font-variant:normal;font-weight:normal;font-stretch:normal;writing-mode:lr-tb;fill:#666666;fill-opacity:1;fill-rule:nonzero;stroke:none;font-family:Trade Gothic LT Std;-inkscape-font-specification:TradeGothicLTStd">Motors</tspan><tspan
           id="tspan140"
           sodipodi:role="line"
           y="16.858919"
           x="0 7.8112998 14.0491 22.633101 29.65765 37.468948 43.706749 50.7313 55.409649 59.694626 63.979603 75.682503 82.707054 87.385399 94.40995 99.088303 106.11285 113.92415 120.9487 127.1865 148.61137 160.31429 167.33884 172.01718 179.04173 183.72008 190.74463 195.42297 202.44753 207.12589 214.93718 222.74847 229.77303 251.19791 262.90082 269.92535 274.6037 281.62827 286.30661 293.33115 299.56897 306.59351"
           style="font-size:14.04909992px;font-variant:normal;font-weight:normal;font-stretch:normal;writing-mode:lr-tb;fill:#666666;fill-opacity:1;fill-rule:nonzero;stroke:none;font-family:Trade Gothic LT Std;-inkscape-font-specification:TradeGothicLTStd">hxSensor: motor_pos motor_torque motor_vel</tspan></text>
<text
         id="text142"
         transform="matrix(1,0,0,-0.99650318,371.5645,536.2529)"><tspan
           id="tspan144"
           y="0"
           x="0"
           style="font-size:11.03859997px;font-variant:normal;font-weight:normal;font-stretch:normal;writing-mode:lr-tb;fill:#666666;fill-opacity:1;fill-rule:nonzero;stroke:none;font-family:Trade Gothic LT Std;-inkscape-font-specification:TradeGothicLTStd">0</tspan><tspan
           id="tspan146"
           y="15.05665"
           x="0"
           style="font-size:11.03859997px;font-variant:normal;font-weight:normal;font-stretch:normal;writing-mode:lr-tb;fill:#666666;fill-opacity:1;fill-rule:nonzero;stroke:none;font-family:Trade Gothic LT Std;-inkscape-font-specification:TradeGothicLTStd">1</tspan><tspan
           id="tspan148"
           y="30.1133"
           x="0"
           style="font-size:11.03859997px;font-variant:normal;font-weight:normal;font-stretch:normal;writing-mode:lr-tb;fill:#666666;fill-opacity:1;fill-rule:nonzero;stroke:none;font-family:Trade Gothic LT Std;-inkscape-font-specification:TradeGothicLTStd">2</tspan><tspan
           id="tspan150"
           y="60.215565"
           x="0"
           style="font-size:11.03859997px;font-variant:normal;font-weight:normal;font-stretch:normal;writing-mode:lr-tb;fill:#666666;fill-opacity:1;fill-rule:nonzero;stroke:none;font-family:Trade Gothic LT Std;-inkscape-font-specification:TradeGothicLTStd">3</tspan><tspan
           id="tspan152"
           y="75.272217"
           x="0"
           style="font-size:11.03859997px;font-variant:normal;font-weight:normal;font-stretch:normal;writing-mode:lr-tb;fill:#666666;fill-opacity:1;fill-rule:nonzero;stroke:none;font-family:Trade Gothic LT Std;-inkscape-font-specification:TradeGothicLTStd">4</tspan><tspan
           id="tspan154"
           y="90.328865"
           x="0"
           style="font-size:11.03859997px;font-variant:normal;font-weight:normal;font-stretch:normal;writing-mode:lr-tb;fill:#666666;fill-opacity:1;fill-rule:nonzero;stroke:none;font-family:Trade Gothic LT Std;-inkscape-font-specification:TradeGothicLTStd">5</tspan><tspan
           id="tspan156"
           y="105.38551"
           x="0"
           style="font-size:11.03859997px;font-variant:normal;font-weight:normal;font-stretch:normal;writing-mode:lr-tb;fill:#666666;fill-opacity:1;fill-rule:nonzero;stroke:none;font-family:Trade Gothic LT Std;-inkscape-font-specification:TradeGothicLTStd">6</tspan><tspan
           id="tspan158"
           y="135.48778"
           x="0"
           style="font-size:11.03859997px;font-variant:normal;font-weight:normal;font-stretch:normal;writing-mode:lr-tb;fill:#666666;fill-opacity:1;fill-rule:nonzero;stroke:none;font-family:Trade Gothic LT Std;-inkscape-font-specification:TradeGothicLTStd">7</tspan><tspan
           id="tspan160"
           y="150.54443"
           x="0"
           style="font-size:11.03859997px;font-variant:normal;font-weight:normal;font-stretch:normal;writing-mode:lr-tb;fill:#666666;fill-opacity:1;fill-rule:nonzero;stroke:none;font-family:Trade Gothic LT Std;-inkscape-font-specification:TradeGothicLTStd">8</tspan><tspan
           id="tspan162"
           y="180.64668"
           x="0"
           style="font-size:11.03859997px;font-variant:normal;font-weight:normal;font-stretch:normal;writing-mode:lr-tb;fill:#666666;fill-opacity:1;fill-rule:nonzero;stroke:none;font-family:Trade Gothic LT Std;-inkscape-font-specification:TradeGothicLTStd">9</tspan><tspan
           id="tspan164"
           sodipodi:role="line"
           y="195.70334"
           x="-6.7445846 -0"
           style="font-size:11.03859997px;font-variant:normal;font-weight:normal;font-stretch:normal;writing-mode:lr-tb;fill:#666666;fill-opacity:1;fill-rule:nonzero;stroke:none;font-family:Trade Gothic LT Std;-inkscape-font-specification:TradeGothicLTStd">10</tspan><tspan
           id="tspan166"
           sodipodi:role="line"
           y="225.8056"
           x="-6.7445846 -0"
           style="font-size:11.03859997px;font-variant:normal;font-weight:normal;font-stretch:normal;writing-mode:lr-tb;fill:#666666;fill-opacity:1;fill-rule:nonzero;stroke:none;font-family:Trade Gothic LT Std;-inkscape-font-specification:TradeGothicLTStd">11</tspan><tspan
           id="tspan168"
           sodipodi:role="line"
           y="240.86224"
           x="-6.7445846 -0"
           style="font-size:11.03859997px;font-variant:normal;font-weight:normal;font-stretch:normal;writing-mode:lr-tb;fill:#666666;fill-opacity:1;fill-rule:nonzero;stroke:none;font-family:Trade Gothic LT Std;-inkscape-font-specification:TradeGothicLTStd">12</tspan><tspan
           id="tspan170"
           sodipodi:role="line"
           y="270.96451"
           x="-6.7445846 -0"
           style="font-size:11.03859997px;font-variant:normal;font-weight:normal;font-stretch:normal;writing-mode:lr-tb;fill:#666666;fill-opacity:1;fill-rule:nonzero;stroke:none;font-family:Trade Gothic LT Std;-inkscape-font-specification:TradeGothicLTStd">13</tspan><tspan
           id="tspan172"
           sodipodi:role="line"
           y="286.02115"
           x="-6.7445846 -0"
           style="font-size:11.03859997px;font-variant:normal;font-weight:normal;font-stretch:normal;writing-mode:lr-tb;fill:#666666;fill-opacity:1;fill-rule:nonzero;stroke:none;font-family:Trade Gothic LT Std;-inkscape-font-specification:TradeGothicLTStd">14</tspan><tspan
           id="tspan174"
           sodipodi:role="line"
           y="0.022077199"
           x="24.571924 31.934669 35.610523 38.679253 43.580391 47.256248 52.775547 56.451401 61.970699"
           style="font-size:11.03859997px;font-variant:normal;font-weight:normal;font-stretch:normal;writing-mode:lr-tb;fill:#666666;fill-opacity:1;fill-rule:nonzero;stroke:none;font-family:Trade Gothic LT Std;-inkscape-font-specification:TradeGothicLTStd">wrist_rot</tspan><tspan
           id="tspan176"
           sodipodi:role="line"
           y="15.078728"
           x="24.571924 31.934669 35.610523 38.679253 43.580391 47.256248 52.775547 58.91301 64.432312"
           style="font-size:11.03859997px;font-variant:normal;font-weight:normal;font-stretch:normal;writing-mode:lr-tb;fill:#666666;fill-opacity:1;fill-rule:nonzero;stroke:none;font-family:Trade Gothic LT Std;-inkscape-font-specification:TradeGothicLTStd">wrist_dev</tspan><tspan
           id="tspan178"
           sodipodi:role="line"
           y="30.135378"
           x="24.571924 31.934669 35.610523 38.679253 43.580391 47.256248 52.775547 56.451401"
           style="font-size:11.03859997px;font-variant:normal;font-weight:normal;font-stretch:normal;writing-mode:lr-tb;fill:#666666;fill-opacity:1;fill-rule:nonzero;stroke:none;font-family:Trade Gothic LT Std;-inkscape-font-specification:TradeGothicLTStd">wrist_fe</tspan><tspan
           id="tspan180"
           sodipodi:role="line"
           y="60.23764"
           x="24.571924 28.247778 34.385239 40.522701 49.717854 55.855316 61.374615 66.893913 76.089073 81.608368 87.12767 92.646973 98.784431 104.30373 109.82303"
           style="font-size:11.03859997px;font-variant:normal;font-weight:normal;font-stretch:normal;writing-mode:lr-tb;fill:#666666;fill-opacity:1;fill-rule:nonzero;stroke:none;font-family:Trade Gothic LT Std;-inkscape-font-specification:TradeGothicLTStd">thumb_cmc_ab_ad</tspan><tspan
           id="tspan182"
           sodipodi:role="line"
           y="75.294289"
           x="24.571924 28.247778 34.385239 40.522701 49.717854 55.855316 61.374615 66.893913 76.089073 81.608368 87.12767 90.80352"
           style="font-size:11.03859997px;font-variant:normal;font-weight:normal;font-stretch:normal;writing-mode:lr-tb;fill:#666666;fill-opacity:1;fill-rule:nonzero;stroke:none;font-family:Trade Gothic LT Std;-inkscape-font-specification:TradeGothicLTStd">thumb_cmc_fe</tspan><tspan
           id="tspan184"
           sodipodi:role="line"
           y="90.350945"
           x="24.571924 28.247778 34.385239 40.522701 49.717854 55.855316 61.374615 70.569771 76.089073"
           style="font-size:11.03859997px;font-variant:normal;font-weight:normal;font-stretch:normal;writing-mode:lr-tb;fill:#666666;fill-opacity:1;fill-rule:nonzero;stroke:none;font-family:Trade Gothic LT Std;-inkscape-font-specification:TradeGothicLTStd">thumb_mcp</tspan><tspan
           id="tspan186"
           sodipodi:role="line"
           y="105.40759"
           x="24.571924 28.247778 34.385239 40.522701 49.717854 55.855316 61.374615 67.512077 70.580811"
           style="font-size:11.03859997px;font-variant:normal;font-weight:normal;font-stretch:normal;writing-mode:lr-tb;fill:#666666;fill-opacity:1;fill-rule:nonzero;stroke:none;font-family:Trade Gothic LT Std;-inkscape-font-specification:TradeGothicLTStd">thumb_dip</tspan><tspan
           id="tspan188"
           sodipodi:role="line"
           y="135.50986"
           x="24.571924 27.640654 33.778114 39.915577 45.434879 50.336018 55.855316 61.374615 67.512077 73.03138 78.550674"
           style="font-size:11.03859997px;font-variant:normal;font-weight:normal;font-stretch:normal;writing-mode:lr-tb;fill:#666666;fill-opacity:1;fill-rule:nonzero;stroke:none;font-family:Trade Gothic LT Std;-inkscape-font-specification:TradeGothicLTStd">index_ab_ad</tspan><tspan
           id="tspan190"
           sodipodi:role="line"
           y="150.5665"
           x="24.571924 27.640654 33.778114 39.915577 45.434879"
           style="font-size:11.03859997px;font-variant:normal;font-weight:normal;font-stretch:normal;writing-mode:lr-tb;fill:#666666;fill-opacity:1;fill-rule:nonzero;stroke:none;font-family:Trade Gothic LT Std;-inkscape-font-specification:TradeGothicLTStd">index</tspan><tspan
           id="tspan192"
           sodipodi:role="line"
           y="180.66878"
           x="24.571924 33.767078 36.835808 42.97327 49.110733 52.179462 57.698761 63.218063 68.737366 74.874825 80.394127 85.913422"
           style="font-size:11.03859997px;font-variant:normal;font-weight:normal;font-stretch:normal;writing-mode:lr-tb;fill:#666666;fill-opacity:1;fill-rule:nonzero;stroke:none;font-family:Trade Gothic LT Std;-inkscape-font-specification:TradeGothicLTStd">middle_ab_ad</tspan><tspan
           id="tspan194"
           sodipodi:role="line"
           y="195.72542"
           x="24.571924 33.767078 36.835808 42.97327 49.110733 52.179462"
           style="font-size:11.03859997px;font-variant:normal;font-weight:normal;font-stretch:normal;writing-mode:lr-tb;fill:#666666;fill-opacity:1;fill-rule:nonzero;stroke:none;font-family:Trade Gothic LT Std;-inkscape-font-specification:TradeGothicLTStd">middle</tspan><tspan
           id="tspan196"
           sodipodi:role="line"
           y="225.82768"
           x="24.571924 28.247778 31.316507 37.453968 42.97327 48.492569 54.011871 60.14933 65.668633 71.187935"
           style="font-size:11.03859997px;font-variant:normal;font-weight:normal;font-stretch:normal;writing-mode:lr-tb;fill:#666666;fill-opacity:1;fill-rule:nonzero;stroke:none;font-family:Trade Gothic LT Std;-inkscape-font-specification:TradeGothicLTStd">ring_ab_ad</tspan><tspan
           id="tspan198"
           sodipodi:role="line"
           y="240.88432"
           x="24.571924 28.247778 31.316507 37.453968"
           style="font-size:11.03859997px;font-variant:normal;font-weight:normal;font-stretch:normal;writing-mode:lr-tb;fill:#666666;fill-opacity:1;fill-rule:nonzero;stroke:none;font-family:Trade Gothic LT Std;-inkscape-font-specification:TradeGothicLTStd">ring</tspan><tspan
           id="tspan200"
           sodipodi:role="line"
           y="270.9866"
           x="24.571924 27.640654 30.709385 34.385239 38.061092 41.129822 46.649124 52.168423 57.687725 63.825184 69.344482 74.863785"
           style="font-size:11.03859997px;font-variant:normal;font-weight:normal;font-stretch:normal;writing-mode:lr-tb;fill:#666666;fill-opacity:1;fill-rule:nonzero;stroke:none;font-family:Trade Gothic LT Std;-inkscape-font-specification:TradeGothicLTStd">little_ab_ad</tspan><tspan
           id="tspan202"
           sodipodi:role="line"
           y="286.04324"
           x="24.571924 27.640654 30.709385 34.385239 38.061092 41.129822"
           style="font-size:11.03859997px;font-variant:normal;font-weight:normal;font-stretch:normal;writing-mode:lr-tb;fill:#666666;fill-opacity:1;fill-rule:nonzero;stroke:none;font-family:Trade Gothic LT Std;-inkscape-font-specification:TradeGothicLTStd">little</tspan></text>
<g
         id="g204"><g
           clip-path="url(#clipPath208)"
           id="g206"><g
             transform="translate(387.4653,557.9624)"
             id="g212"><path
               inkscape:connector-curvature="0"
               id="path214"
               style="fill:none;stroke:#666666;stroke-width:0.5;stroke-linecap:butt;stroke-linejoin:miter;stroke-miterlimit:4;stroke-opacity:1;stroke-dasharray:none"
               d="M 0,0 0,-355.937" /></g><g
             transform="translate(168.7515,206.3066)"
             id="g216"><path
               inkscape:connector-curvature="0"
               id="path218"
               style="fill:none;stroke:#666666;stroke-width:0.5;stroke-linecap:butt;stroke-linejoin:miter;stroke-miterlimit:10;stroke-opacity:1;stroke-dasharray:none"
               d="M 0,0 68.818,0" /></g><g
             transform="translate(168.7515,171.1797)"
             id="g220"><path
               inkscape:connector-curvature="0"
               id="path222"
               style="fill:none;stroke:#666666;stroke-width:0.5;stroke-linecap:butt;stroke-linejoin:miter;stroke-miterlimit:10;stroke-opacity:1;stroke-dasharray:none"
               d="M 0,0 68.818,0" /></g><g
             transform="translate(168.7515,116.6162)"
             id="g224"><path
               inkscape:connector-curvature="0"
               id="path226"
               style="fill:none;stroke:#666666;stroke-width:0.5;stroke-linecap:butt;stroke-linejoin:miter;stroke-miterlimit:10;stroke-opacity:1;stroke-dasharray:none"
               d="M 0,0 68.818,0" /></g><g
             transform="translate(228.5093,284.543)"
             id="g228"><path
               inkscape:connector-curvature="0"
               id="path230"
               style="fill:none;stroke:#666666;stroke-width:0.5;stroke-linecap:butt;stroke-linejoin:miter;stroke-miterlimit:10;stroke-opacity:1;stroke-dasharray:none"
               d="M 0,0 49.822,0" /></g><g
             transform="translate(252.624,306.0918)"
             id="g232"><path
               inkscape:connector-curvature="0"
               id="path234"
               style="fill:none;stroke:#666666;stroke-width:0.5;stroke-linecap:butt;stroke-linejoin:miter;stroke-miterlimit:10;stroke-opacity:1;stroke-dasharray:none"
               d="M 0,0 34.175,0" /></g><g
             transform="translate(274.416,338.6279)"
             id="g236"><path
               inkscape:connector-curvature="0"
               id="path238"
               style="fill:none;stroke:#666666;stroke-width:0.5;stroke-linecap:butt;stroke-linejoin:miter;stroke-miterlimit:10;stroke-opacity:1;stroke-dasharray:none"
               d="M 0,0 26.894,0" /></g><g
             transform="translate(291.3511,375.7891)"
             id="g240"><path
               inkscape:connector-curvature="0"
               id="path242"
               style="fill:none;stroke:#666666;stroke-width:0.5;stroke-linecap:butt;stroke-linejoin:miter;stroke-miterlimit:10;stroke-opacity:1;stroke-dasharray:none"
               d="M 0,0 19.317,0" /></g><g
             transform="translate(223.8643,370.187)"
             id="g244"><path
               inkscape:connector-curvature="0"
               id="path246"
               style="fill:none;stroke:#666666;stroke-width:0.5;stroke-linecap:butt;stroke-linejoin:miter;stroke-miterlimit:10;stroke-opacity:1;stroke-dasharray:none"
               d="M 0,0 16.987,0" /></g><g
             transform="translate(235.5654,409.5391)"
             id="g248"><path
               inkscape:connector-curvature="0"
               id="path250"
               style="fill:none;stroke:#666666;stroke-width:0.5;stroke-linecap:butt;stroke-linejoin:miter;stroke-miterlimit:10;stroke-opacity:1;stroke-dasharray:none"
               d="M 0,0 15.337,0" /></g><g
             transform="translate(184.6177,412.1865)"
             id="g252"><path
               inkscape:connector-curvature="0"
               id="path254"
               style="fill:none;stroke:#666666;stroke-width:0.5;stroke-linecap:butt;stroke-linejoin:miter;stroke-miterlimit:10;stroke-opacity:1;stroke-dasharray:none"
               d="M 0,0 14.658,0" /></g><g
             transform="translate(133.5737,410.895)"
             id="g256"><path
               inkscape:connector-curvature="0"
               id="path258"
               style="fill:none;stroke:#666666;stroke-width:0.5;stroke-linecap:butt;stroke-linejoin:miter;stroke-miterlimit:10;stroke-opacity:1;stroke-dasharray:none"
               d="M 0,0 13.508,0" /></g><g
             transform="translate(76.2715,383.3442)"
             id="g260"><path
               inkscape:connector-curvature="0"
               id="path262"
               style="fill:none;stroke:#666666;stroke-width:0.5;stroke-linecap:butt;stroke-linejoin:miter;stroke-miterlimit:10;stroke-opacity:1;stroke-dasharray:none"
               d="M 0,0 -14.84,0" /></g><g
             transform="translate(158.1147,109.834)"
             id="g264"><path
               inkscape:connector-curvature="0"
               id="path266"
               style="fill:#808080;fill-opacity:1;fill-rule:nonzero;stroke:none"
               d="M 0,0 7.831,13.563 15.662,0 0,0 z" /></g><g
             transform="translate(158.1147,164.3975)"
             id="g268"><path
               inkscape:connector-curvature="0"
               id="path270"
               style="fill:#808080;fill-opacity:1;fill-rule:nonzero;stroke:none"
               d="M 0,0 7.831,13.563 15.662,0 0,0 z" /></g><g
             transform="translate(158.1147,199.5254)"
             id="g272"><path
               inkscape:connector-curvature="0"
               id="path274"
               style="fill:#808080;fill-opacity:1;fill-rule:nonzero;stroke:none"
               d="M 0,0 7.831,13.563 15.662,0 0,0 z" /></g><g
             transform="translate(218.0332,277.7617)"
             id="g276"><path
               inkscape:connector-curvature="0"
               id="path278"
               style="fill:#808080;fill-opacity:1;fill-rule:nonzero;stroke:none"
               d="M 0,0 7.831,13.563 15.662,0 0,0 z" /></g><g
             transform="translate(240.6562,299.3105)"
             id="g280"><path
               inkscape:connector-curvature="0"
               id="path282"
               style="fill:#808080;fill-opacity:1;fill-rule:nonzero;stroke:none"
               d="M 0,0 7.831,13.563 15.662,0 0,0 z" /></g><g
             transform="translate(261.8804,331.8467)"
             id="g284"><path
               inkscape:connector-curvature="0"
               id="path286"
               style="fill:#808080;fill-opacity:1;fill-rule:nonzero;stroke:none"
               d="M 0,0 7.831,13.563 15.662,0 0,0 z" /></g><g
             transform="translate(278.9678,369.0078)"
             id="g288"><path
               inkscape:connector-curvature="0"
               id="path290"
               style="fill:#808080;fill-opacity:1;fill-rule:nonzero;stroke:none"
               d="M 0,0 7.831,13.563 15.662,0 0,0 z" /></g><g
             transform="translate(211.7021,365.3984)"
             id="g292"><path
               inkscape:connector-curvature="0"
               id="path294"
               style="fill:#808080;fill-opacity:1;fill-rule:nonzero;stroke:none"
               d="M 0,0 7.831,13.563 15.662,0 0,0 z" /></g><g
             transform="translate(222.0171,405.4541)"
             id="g296"><path
               inkscape:connector-curvature="0"
               id="path298"
               style="fill:#808080;fill-opacity:1;fill-rule:nonzero;stroke:none"
               d="M 0,0 7.831,13.563 15.662,0 0,0 z" /></g><g
             transform="translate(172.2344,369.0078)"
             id="g300"><path
               inkscape:connector-curvature="0"
               id="path302"
               style="fill:#808080;fill-opacity:1;fill-rule:nonzero;stroke:none"
               d="M 0,0 7.831,13.563 15.662,0 0,0 z" /></g><g
             transform="translate(172.2344,405.4541)"
             id="g304"><path
               inkscape:connector-curvature="0"
               id="path306"
               style="fill:#808080;fill-opacity:1;fill-rule:nonzero;stroke:none"
               d="M 0,0 7.831,13.563 15.662,0 0,0 z" /></g><g
             transform="translate(125.123,368.0083)"
             id="g308"><path
               inkscape:connector-curvature="0"
               id="path310"
               style="fill:#808080;fill-opacity:1;fill-rule:nonzero;stroke:none"
               d="M 0,0 7.831,13.563 15.662,0 0,0 z" /></g><g
             transform="translate(121.0532,405.4541)"
             id="g312"><path
               inkscape:connector-curvature="0"
               id="path314"
               style="fill:#808080;fill-opacity:1;fill-rule:nonzero;stroke:none"
               d="M 0,0 7.831,13.563 15.662,0 0,0 z" /></g><g
             transform="translate(87.9951,353.7427)"
             id="g316"><path
               inkscape:connector-curvature="0"
               id="path318"
               style="fill:#808080;fill-opacity:1;fill-rule:nonzero;stroke:none"
               d="M 0,0 7.831,13.563 15.662,0 0,0 z" /></g><g
             transform="translate(73.3975,378.9775)"
             id="g320"><path
               inkscape:connector-curvature="0"
               id="path322"
               style="fill:#808080;fill-opacity:1;fill-rule:nonzero;stroke:none"
               d="M 0,0 7.831,13.563 15.662,0 0,0 z" /></g><g
             transform="translate(78.5132,312.2656)"
             id="g324"><path
               inkscape:connector-curvature="0"
               id="path326"
               style="fill:none;stroke:#e6e6e6;stroke-width:0.5;stroke-linecap:butt;stroke-linejoin:miter;stroke-miterlimit:10;stroke-opacity:1;stroke-dasharray:none"
               d="m 0,0 c 0,0 -16.392,-0.03 -16.703,-4.53 -0.31,-4.5 3.216,-48 12.203,-61 l 13.243,0.598" /></g><g
             transform="translate(147.8594,242.1445)"
             id="g328"><path
               inkscape:connector-curvature="0"
               id="path330"
               style="fill:none;stroke:#e6e6e6;stroke-width:0.5;stroke-linecap:butt;stroke-linejoin:miter;stroke-miterlimit:10;stroke-opacity:1;stroke-dasharray:none"
               d="m 0,0 c 0,-1.988 -1.612,-3.6 -3.6,-3.6 l -43.993,0 c -1.988,0 -3.6,1.612 -3.6,3.6 l 0,78.301 c 0,1.988 1.612,3.599 3.6,3.599 l 43.993,0 C -1.612,81.9 0,80.289 0,78.301 L 0,0 z" /></g><g
             transform="translate(213.6094,242.1445)"
             id="g332"><path
               inkscape:connector-curvature="0"
               id="path334"
               style="fill:none;stroke:#e6e6e6;stroke-width:0.5;stroke-linecap:butt;stroke-linejoin:miter;stroke-miterlimit:10;stroke-opacity:1;stroke-dasharray:none"
               d="m 0,0 c 0,-1.988 -1.612,-3.6 -3.6,-3.6 l -43.993,0 c -1.988,0 -3.6,1.612 -3.6,3.6 l 0,78.301 c 0,1.988 1.612,3.599 3.6,3.599 l 43.993,0 C -1.612,81.9 0,80.289 0,78.301 L 0,0 z" /></g></g></g></g></g></svg>